<svg xmlns="http://www.w3.org/2000/svg" width="32.834" height="32.828" viewBox="0 0 32.834 32.828">
  <path id="floating" d="M579.844,2164.47H581.9c.559.073,1.121.128,1.676.222a16.471,16.471,0,0,1,13.46,13.365c.106.6.169,1.2.252,1.8v2.052c-.048.391-.089.782-.145,1.172a16.412,16.412,0,1,1-27.936-13.721,16.071,16.071,0,0,1,8.839-4.638C578.639,2164.617,579.244,2164.553,579.844,2164.47Zm2.389,17.777h5.754a1.361,1.361,0,1,0,.032-2.719c-1.794-.011-3.589,0-5.384,0h-.4v-5.746a1.334,1.334,0,0,0-.827-1.326,1.35,1.35,0,0,0-1.9,1.278c-.012,1.795,0,3.589,0,5.384v.41h-5.737a1.362,1.362,0,1,0-.066,2.722c1.8.013,3.611,0,5.416,0h.385v.435c0,1.763,0,3.525,0,5.288a1.362,1.362,0,1,0,2.722.082c.014-1.795,0-3.589.005-5.384Z" transform="translate(-564.451 -2164.47)" fill="#36c3df"/>
</svg>
