<svg xmlns="http://www.w3.org/2000/svg" width="24.926" height="24.921" viewBox="0 0 24.926 24.921">
  <path id="wrong-5" d="M981.549-434.616l-2.927-2.914-6.235-6.229a1.9,1.9,0,0,1-.574-2.033A1.854,1.854,0,0,1,973-447a1.854,1.854,0,0,1,1.67.261,4.3,4.3,0,0,1,.5.458q4.293,4.283,8.572,8.573c.126.126.227.275.363.441.181-.168.309-.28.43-.4l8.781-8.781a1.9,1.9,0,0,1,1.89-.615,1.86,1.86,0,0,1,1.322,1.181,1.859,1.859,0,0,1-.268,1.752,4.858,4.858,0,0,1-.463.5q-4.283,4.293-8.574,8.571a4.6,4.6,0,0,1-.452.348c.188.2.3.329.425.451q4.354,4.355,8.713,8.707a1.94,1.94,0,0,1,.629,1.979,1.862,1.862,0,0,1-3.146.8c-.842-.81-1.659-1.65-2.482-2.476q-3.2-3.2-6.4-6.406a2.953,2.953,0,0,1-.261-.353l-.2-.072a2.171,2.171,0,0,1-.272.463q-4.347,4.363-8.7,8.718a1.913,1.913,0,0,1-2.068.6,1.854,1.854,0,0,1-1.213-1.235,1.854,1.854,0,0,1,.335-1.7,4.608,4.608,0,0,1,.367-.39l8.608-8.607C981.231-434.35,981.371-434.461,981.549-434.616Z" transform="translate(-971.717 447.116)" fill="#fe6363"/>
</svg>
