<svg xmlns="http://www.w3.org/2000/svg" width="21.205" height="21.158" viewBox="0 0 21.205 21.158">
  <g id="filterr" transform="translate(0.01)">
    <path id="Path_14974" data-name="Path 14974" d="M21.2,3.224a.787.787,0,0,1-.847.51c-1.124-.018-2.249,0-3.373-.009-.143,0-.215.028-.257.182a3.076,3.076,0,0,1-5.921,0c-.046-.165-.127-.187-.276-.187-3.235,0-6.47,0-9.7.008A.781.781,0,0,1,0,3.224V2.894A.837.837,0,0,1,.881,2.4c3.2.009,6.4.006,9.6.006h.267c.022-.068.041-.119.056-.17A2.926,2.926,0,0,1,12.243.406,7.759,7.759,0,0,1,13.336,0h.828a.624.624,0,0,0,.1.033,3.042,3.042,0,0,1,2.33,1.81c.083.178.136.37.2.561h.235c1.1,0,2.194.011,3.291-.006a.842.842,0,0,1,.883.494v.331Zm-9.2-.149a1.76,1.76,0,1,0,1.758-1.758A1.765,1.765,0,0,0,12.008,3.075Z" transform="translate(-0.009)" fill="#fff"/>
    <path id="Path_14975" data-name="Path 14975" d="M21.214,275.108a.842.842,0,0,1-.882.494c-1.159-.015-2.318,0-3.477,0a.276.276,0,0,0-.044.008,3.11,3.11,0,0,1-6.057-.01H10.5c-3.2,0-6.4,0-9.6.005a.848.848,0,0,1-.883-.494v-.331a.775.775,0,0,1,.824-.509c3.228.009,6.456,0,9.684.009.182,0,.256-.045.307-.227a3.078,3.078,0,0,1,5.907.024c.043.155.1.2.262.2,1.124-.007,2.249.008,3.373-.01a.789.789,0,0,1,.847.51v.331Zm-7.448,1.576a1.755,1.755,0,1,0-1.748-1.766A1.758,1.758,0,0,0,13.766,276.684Z" transform="translate(-0.019 -256.838)" fill="#fff"/>
    <path id="Path_14976" data-name="Path 14976" d="M-.009,138.821a.8.8,0,0,1,.854-.5c1.11.017,2.222.006,3.333.006h.235a3.1,3.1,0,0,1,1.29-1.887,3.043,3.043,0,0,1,1.754-.528,3.116,3.116,0,0,1,3,2.416h.24c3.215,0,6.43,0,9.646-.006a.814.814,0,0,1,.854.5v.331a.815.815,0,0,1-.854.5c-3.215-.01-6.43-.006-9.645-.006h-.241a3.1,3.1,0,0,1-6.056,0H2.811c-.655,0-1.311-.015-1.966.006a.8.8,0,0,1-.855-.5v-.331ZM7.4,140.74a1.754,1.754,0,1,0-1.732-1.787A1.757,1.757,0,0,0,7.4,140.74Z" transform="translate(0 -128.405)" fill="#fff"/>
  </g>
</svg>
