<svg xmlns="http://www.w3.org/2000/svg" width="453.604" height="325" viewBox="0 0 453.604 325">
  <g id="Group_4000" data-name="Group 4000" transform="translate(-798.698 -215)">
    <g id="no_rules" data-name="no rules" transform="translate(798.698 215)">
      <circle id="Ellipse_1" data-name="Ellipse 1" cx="14.023" cy="14.023" r="14.023" transform="translate(346.007 1.171)" fill="#fece46"/>
      <path id="Path_14801" data-name="Path 14801" d="M653.311,103.364s6.715-1.479,20.845-.743,27.561,4.249,34.9,8.231,10.426,9.851,10.436,13-.281,7.538-1.144,8.184-7.264.642-8.9.642,1.405-2.466,2.419-4.263,1.951-6.792-.626-9.211-4.045-4.51-9.994-3.483-9.375,2.443-14.331,3.078-11.356,2.275-18.54,2.667-11.634,3.64-10.148.78,2.362-11.771-1.854-15.224-3.065-3.664-3.065-3.664Z" transform="translate(-434.615 -68.148)" fill="#027bff"/>
      <path id="Path_14802" data-name="Path 14802" d="M514.546,108.521s-12.183,5.213-15.278,7.8-3.751,3.908-3.64,4.393,7.525-.214,12.444.913,17.6,4.226,18.155,3.838-2.56-7.294-.964-10.165,1.753-6.257,3.587-7.96,1.954-3-5.089-1.258-9.215,2.436-9.215,2.436Z" transform="translate(-329.784 -70.036)" fill="#027bff"/>
      <ellipse id="Ellipse_2" data-name="Ellipse 2" cx="11.671" cy="11.038" rx="11.671" ry="11.038" transform="matrix(0.297, -0.955, 0.955, 0.297, 202.042, 30.726)" fill="#0d2551"/>
      <path id="Path_14803" data-name="Path 14803" d="M32.382,353.117c-1.1,3.737-2.627,8.853-.913,16.292,1.593,6.923.074,10.928-1.476,13.066a4.343,4.343,0,0,1-1.546,1.325c-1.027-12.45-2.52-27.758-4.47-40.249a1.171,1.171,0,1,0-2.315.358c1.954,12.534,3.453,27.932,4.477,40.4a4.693,4.693,0,0,1-1.767-.422c-5.079-2.352-4.788-7.063-4.51-11.627.154-2.556.3-4.975-.525-6.876a24.549,24.549,0,0,0-2.392-4.072c-2.262-3.323-4.052-5.949-1.007-11.627,2.573-4.8,1.315-8.211.107-11.5-1.138-3.1-2.215-6.019-.552-10.53,1.442-3.922,4.005-5.531,6.254-5.531a4.474,4.474,0,0,1,1.161.151c2.235.589,4.179,3.112,3.476,7.411-1.241,7.552.187,9.419,3.041,12.32a27.182,27.182,0,0,1,2.941,3.4c1.636,2.275.987,4.44.013,7.719Z" transform="translate(-9.529 -214.339)" fill="#027bff"/>
      <path id="Path_14804" data-name="Path 14804" d="M211.323,444.389c-3.312,4.554-7.492,4.36-11.922,4.156-4.172-.191-8.492-.395-11.075,4.146-1.887,3.306-3.523,3.185-6,2.995-2.871-.221-6.444-.5-10.54,4.768-4.885,6.28-9.964,6-12.276,5.424.646-.964,1.335-1.947,2.081-2.931,9.2-12.146,21.632-18.888,36.96-20.036a1.169,1.169,0,0,0-.177-2.332,52.1,52.1,0,0,0-38.646,20.953c-.525.689-1.017,1.379-1.489,2.058-.723-4.025-1.161-11.758,5.093-15.214,2.225-1.228,4.172-2.215,5.892-3.092,5.782-2.931,9.265-4.7,12.909-10.262,2.038-3.112,4.617-2.657,9-1.573,3.128.773,6.679,1.65,10.3.4,4.072-1.405,9.021-.325,11.042,2.4,1.569,2.128,1.171,4.942-1.158,8.141Z" transform="translate(-105.028 -287.874)" fill="#027bff"/>
      <path id="Path_14805" data-name="Path 14805" d="M135,333.436c-7.04,4.008-7.391,8.342-7.672,11.825-.244,3.031-.422,5.22-4.37,7.234a65.355,65.355,0,0,1-6.019,2.643c-5.407,2.141-8.666,3.43-8.981,12.343-.338,9.613-2.978,13.277-10.657,14.24.375-1.934.816-3.945,1.338-6.006,3.57-13.969,11.771-33.145,30.579-45.157a1.171,1.171,0,0,0-1.261-1.974c-19.453,12.424-27.915,32.172-31.586,46.559-.492,1.931-.913,3.808-1.278,5.625-2.54-2.59-7.017-8.576-2.737-15.458.853-1.372,1.619-2.563,2.305-3.63,4.3-6.712,5.6-8.74,5.434-18.55-.174-9.988,2.188-10.694,13.364-12.4,6.123-.934,9.181-5.293,11.641-8.8,2.2-3.135,3.721-5.1,6.15-5.1a5.651,5.651,0,0,1,1.556.234c4.611,1.3,8.107,4.507,8.505,7.786.375,3.055-1.814,6.023-6.314,8.592Z" transform="translate(-60.273 -210.819)" fill="#027bff"/>
      <path id="Path_14806" data-name="Path 14806" d="M595.975,103.4s-11.764.586-12.792,7.729.853,12.648,2.2,13.819,7.09,1.054,11.283.676,12.153-.064,13.481-1.422a10.153,10.153,0,0,0,3.222-7.886,12.054,12.054,0,0,0-6.96-10.336c-4.9-2.459-6.923-2.928-10.436-2.576Z" transform="translate(-387.855 -68.737)" fill="#0d2551"/>
      <path id="Path_14807" data-name="Path 14807" d="M647.121,257.473c-1.435,0-11.932-1.124-11.992.726s8.4,6.779,9.911,9.449,3.61,4,6.665,3.041,23.5-6.568,37.391-4.741,13.866.164,16.79.857,5.544,1.954,3.784-2.208.425-7.18-4.648-7.465-57.9.338-57.9.338Z" transform="translate(-422.616 -171.047)" fill="#027bff"/>
      <path id="Path_14808" data-name="Path 14808" d="M403.842,63.2a1.176,1.176,0,0,1-.954-.489L391.914,47.366A1.165,1.165,0,0,1,391.8,46.2a1.178,1.178,0,0,1,.954-.683l18.778-1.83a1.172,1.172,0,0,1,1.181,1.65l-7.806,17.178a1.178,1.178,0,0,1-.954.683c-.037,0-.077.007-.114.007ZM395,47.654,403.618,59.7l6.126-13.484L395,47.654Z" transform="translate(-260.635 -29.067)" fill="#fece46"/>
      <path id="Path_14809" data-name="Path 14809" d="M489.285,213.612H154.791a1.172,1.172,0,0,1-1.171-1.171V190.551a1.172,1.172,0,0,1,1.171-1.171H489.285a1.172,1.172,0,0,1,1.171,1.171V212.44A1.172,1.172,0,0,1,489.285,213.612Zm-333.323-2.342H488.114V191.722H155.962v19.547Z" transform="translate(-102.219 -126.014)" fill="#0d2551"/>
      <path id="Path_14810" data-name="Path 14810" d="M651.586,158.014a1.17,1.17,0,0,1-.167-2.329c2.794-.4,6.15-2.238,7.164-4.969.763-2.054.11-4.3-1.944-6.658-4.032-4.638-9.961-3.149-19.778-.683-3.848.967-8.211,2.061-13.173,2.941-12.39,2.192-20.929,2.941-28.461,3.6-3.309.291-6.438.562-9.71.937-9.653,1.1-10.038,5.835-10.048,6.036a1.17,1.17,0,0,1-2.339-.08c.007-.281.318-6.936,12.122-8.285,3.3-.378,6.444-.652,9.77-.944,7.485-.656,15.97-1.4,28.257-3.574,4.878-.863,9.2-1.947,13.009-2.9,9.951-2.5,17.141-4.306,22.117,1.415,3.313,3.811,3.118,7,2.372,9.011-1.4,3.751-5.655,5.983-9.024,6.468a1.465,1.465,0,0,1-.167.013Z" transform="translate(-381.361 -92.309)" fill="#0d2551"/>
      <path id="Path_14811" data-name="Path 14811" d="M472.493,164.154a1.172,1.172,0,0,1-.853-.368c-4.253-4.524-3.3-8.194-2.352-9.981,2.366-4.464,9.285-6.735,16.817-5.531,11.644,1.864,28.344,6.585,28.511,6.635a1.17,1.17,0,0,1-.639,2.252c-.167-.047-16.733-4.735-28.24-6.575-6.458-1.034-12.5.783-14.378,4.316-1.445,2.727.284,5.464,1.988,7.281a1.171,1.171,0,0,1-.853,1.974Z" transform="translate(-311.726 -98.449)" fill="#0d2551"/>
      <path id="Path_14812" data-name="Path 14812" d="M582.574,123.127a1.171,1.171,0,0,1-1.121-.833c-.217-.716-5.169-17.55,6.177-21.461,5.487-1.894,13.993-1.927,19.628,1.67a11.1,11.1,0,0,1,5.35,8.405c.8,7.8-2.212,11.42-2.339,11.57a1.17,1.17,0,0,1-1.777-1.522c.017-.023,2.479-3.092,1.79-9.807A8.73,8.73,0,0,0,606,104.477c-5.009-3.2-12.648-3.139-17.6-1.429-9.238,3.185-4.745,18.416-4.7,18.57a1.171,1.171,0,0,1-.783,1.459A1.2,1.2,0,0,1,582.574,123.127Z" transform="translate(-386.061 -66.249)" fill="#0d2551"/>
      <path id="Path_14813" data-name="Path 14813" d="M620.91,55.666a11.667,11.667,0,0,1-3.456-.525,11.834,11.834,0,0,1-7.14-6.187,13.093,13.093,0,0,1-.7-9.7c2.1-6.762,9.047-10.634,15.472-8.636s9.944,9.128,7.84,15.89h0A12.8,12.8,0,0,1,620.91,55.666Zm.716-23.238a10.451,10.451,0,0,0-9.777,7.515,10.769,10.769,0,0,0,.569,7.977A9.509,9.509,0,0,0,618.15,52.9c5.2,1.616,10.821-1.566,12.541-7.093s-1.1-11.343-6.3-12.959a9.318,9.318,0,0,0-2.764-.422Zm10.182,13.729Z" transform="translate(-405.229 -20.021)" fill="#0d2551"/>
      <path id="Path_14814" data-name="Path 14814" d="M486.048,118.963a1.171,1.171,0,0,1-.89-1.934c16.271-18.988,48.262-18.122,49.617-18.075a1.172,1.172,0,0,1-.08,2.342c-.321-.01-32.228-.867-47.76,17.259a1.163,1.163,0,0,1-.89.408Z" transform="translate(-322.638 -65.832)" fill="#0d2551"/>
      <path id="Path_14815" data-name="Path 14815" d="M713.6,131.564a1.142,1.142,0,0,1-.418-.077,1.17,1.17,0,0,1-.676-1.512c2.182-5.708,1.82-10.436-1.107-14.451-12.1-16.6-63.269-14.05-63.788-14.02a1.171,1.171,0,1,1-.124-2.339c2.155-.117,52.963-2.64,65.805,14.98,3.383,4.641,3.854,10.249,1.4,16.666A1.172,1.172,0,0,1,713.6,131.564Z" transform="translate(-430.1 -65.859)" fill="#0d2551"/>
      <path id="Path_14816" data-name="Path 14816" d="M209.307,254.8H201.5a1.17,1.17,0,0,0-1.171,1.171V432.9a1.172,1.172,0,0,0,1.171,1.171h7.806a1.17,1.17,0,0,0,1.171-1.171V255.971A1.168,1.168,0,0,0,209.307,254.8Zm-1.171,176.925h-5.464V257.142h5.464Z" transform="translate(-133.3 -169.545)" fill="#0d2551"/>
      <path id="Path_14817" data-name="Path 14817" d="M1092.247,434.067h-7.806a1.172,1.172,0,0,1-1.171-1.171V255.971a1.172,1.172,0,0,1,1.171-1.171h7.806a1.172,1.172,0,0,1,1.171,1.171V432.9A1.172,1.172,0,0,1,1092.247,434.067Zm-6.635-2.342h5.464V257.142h-5.464Z" transform="translate(-720.811 -169.545)" fill="#0d2551"/>
      <path id="Path_14818" data-name="Path 14818" d="M669.06,424.01H638.337a1.167,1.167,0,0,1-1.151-.964c-.739-4.112-18.031-100.965-11.882-121.991,3.256-11.135,16.268-17.914,38.669-20.146a185.324,185.324,0,0,1,32.225-.09c12.009.244,17.118,10.212,17.841,18.687.83,9.68-3.647,21-13.578,22.893-10.051,1.921-36.337,1.188-42.209.994-.816,17.553,11.835,98.432,11.965,99.265a1.17,1.17,0,0,1-1.158,1.352Zm-29.742-2.342h28.374c-1.767-11.363-13.109-85.242-11.694-99.6a1.173,1.173,0,0,1,1.208-1.054c.318.01,31.971,1.158,42.815-.917,8.582-1.643,12.424-11.731,11.684-20.394-.672-7.873-5.126-16.355-15.6-16.543a.443.443,0,0,1-.094-.007c-.612-.06-61.322-5.852-68.462,18.56-5.678,19.413,9.944,109.594,11.768,119.957Z" transform="translate(-415.201 -186.416)" fill="#0d2551"/>
      <path id="Path_14819" data-name="Path 14819" d="M427.035,428.992H392.883a1.169,1.169,0,0,1-.89-.412,1.153,1.153,0,0,1-.264-.944c.639-4.022,15.716-98.659,20.3-115.071,4.259-15.261,20.27-18.329,38.807-21.879,2.409-.462,4.9-.94,7.388-1.449,21.19-4.346,29.384,1.539,29.722,1.79a1.171,1.171,0,0,1-1.4,1.88c-.1-.07-7.876-5.477-27.855-1.379-2.5.512-5,.99-7.418,1.456-17.77,3.4-33.118,6.344-36.99,20.206-4.249,15.228-18.118,101.544-20.022,113.452h31.753l13.23-101a1.173,1.173,0,0,1,1.231-1.017,284.094,284.094,0,0,0,29.488.114,1.17,1.17,0,1,1,.147,2.335,280.776,280.776,0,0,1-28.685-.054L428.2,427.965a1.17,1.17,0,0,1-1.161,1.017Z" transform="translate(-260.646 -191.398)" fill="#0d2551"/>
      <path id="Path_14820" data-name="Path 14820" d="M852.5,267.588a1.175,1.175,0,0,1-1.128-.853l-2.951-10.446a1.172,1.172,0,1,1,2.255-.636L853.63,266.1a1.17,1.17,0,0,1-1.128,1.489Z" transform="translate(-564.514 -169.544)" fill="#0d2551"/>
      <path id="Path_14821" data-name="Path 14821" d="M645.354,271.286a1.153,1.153,0,0,1-.806-.325l-14.839-14.147a1.171,1.171,0,0,1,1.616-1.7l14.839,14.147a1.17,1.17,0,0,1-.806,2.018Z" transform="translate(-418.768 -169.541)" fill="#0d2551"/>
      <path id="Path_14822" data-name="Path 14822" d="M378.379,732.361H332.67a1.174,1.174,0,0,1-1.111-1.546c2.57-7.672,25.085-13.946,30.482-15.348V704.261a1.172,1.172,0,0,1,1.171-1.171h15.171a1.172,1.172,0,0,1,1.171,1.171V731.19a1.172,1.172,0,0,1-1.171,1.171Zm-43.7-2.342h42.527V705.432H364.379v10.945a1.171,1.171,0,0,1-.887,1.138c-6.933,1.73-24.339,7.063-28.812,12.5Zm28.528-13.638Z" transform="translate(-220.579 -467.838)" fill="#0d2551"/>
      <path id="Path_14823" data-name="Path 14823" d="M695.661,732.361H671.479a2.433,2.433,0,0,1-2.469-2.392v-.12a20.065,20.065,0,0,1,1.971-8.683l3.226-6.776V704.261a1.171,1.171,0,0,1,2.342,0v10.393a1.21,1.21,0,0,1-.114.505l-3.339,7.016a17.724,17.724,0,0,0-1.747,7.676v.12a.165.165,0,0,0,.127.05h24.181a.164.164,0,0,0,.13-.054,17.7,17.7,0,0,0-1.589-7.328l-5.2-7.3a1.172,1.172,0,0,1-.218-.679V704.268a1.171,1.171,0,0,1,2.342,0v10.018l5.046,7.087a1.091,1.091,0,0,1,.11.191,20.058,20.058,0,0,1,1.847,8.412,2.435,2.435,0,0,1-2.469,2.392Z" transform="translate(-445.161 -467.838)" fill="#0d2551"/>
      <path id="Path_14824" data-name="Path 14824" d="M702.839,759.271a1.164,1.164,0,0,1-.642-.194c-4.574-3.011-9.024-3.011-13.6,0a1.172,1.172,0,1,1-1.288-1.957c5.367-3.533,10.807-3.533,16.174,0a1.173,1.173,0,0,1-.646,2.151Z" transform="translate(-456.987 -502.026)" fill="#0d2551"/>
      <path id="Path_14825" data-name="Path 14825" d="M456.911,785.912H7.9a1.171,1.171,0,1,1,0-2.342h449.01a1.171,1.171,0,1,1,0,2.342Z" transform="translate(-4.478 -521.39)" fill="#0d2551"/>
      <path id="Path_14826" data-name="Path 14826" d="M790.782,479.742h-65.41a1.171,1.171,0,0,1,0-2.342h65.41a1.171,1.171,0,0,1,0,2.342Z" transform="translate(-481.884 -317.663)" fill="#0d2551"/>
      <path id="Path_14827" data-name="Path 14827" d="M602.259,427.961H589.571a1.172,1.172,0,0,1-1.171-1.171V400.751a1.171,1.171,0,0,1,2.342,0v24.867h11.517a1.171,1.171,0,1,1,0,2.342Z" transform="translate(-391.523 -265.882)" fill="#0d2551"/>
      <path id="Path_14828" data-name="Path 14828" d="M786.5,79.678h-.087a1.17,1.17,0,0,1-1.081-1.255l1.78-24.054A28.9,28.9,0,0,0,758.3,23.342H737.825a28.857,28.857,0,0,0-28.451,23.85,1.172,1.172,0,1,1-2.309-.408A31.194,31.194,0,0,1,737.821,21h20.471a31.236,31.236,0,0,1,31.151,33.54l-1.78,24.054a1.172,1.172,0,0,1-1.168,1.084Z" transform="translate(-470.471 -13.973)" fill="#0d2551"/>
      <path id="Path_14829" data-name="Path 14829" d="M920.861,331.63h-.087a1.17,1.17,0,0,1-1.081-1.255l5.508-74.481a1.171,1.171,0,0,1,2.336.174l-5.508,74.481a1.172,1.172,0,0,1-1.168,1.084Z" transform="translate(-611.964 -169.551)" fill="#0d2551"/>
      <path id="Path_14830" data-name="Path 14830" d="M906.888,582.186h-7.027a1.172,1.172,0,0,1-1.171-1.171V478.571a1.172,1.172,0,0,1,1.171-1.171h7.027a1.172,1.172,0,0,1,1.171,1.171V581.015A1.172,1.172,0,0,1,906.888,582.186Zm-5.855-2.342h4.684v-100.1h-4.684Z" transform="translate(-597.991 -317.663)" fill="#0d2551"/>
      <path id="Path_14831" data-name="Path 14831" d="M596.6,582.186h-7.027a1.172,1.172,0,0,1-1.171-1.171V478.571a1.172,1.172,0,0,1,1.171-1.171H596.6a1.172,1.172,0,0,1,1.171,1.171V581.015A1.172,1.172,0,0,1,596.6,582.186Zm-5.855-2.342h4.684v-100.1h-4.684Z" transform="translate(-391.523 -317.663)" fill="#0d2551"/>
      <path id="Path_14832" data-name="Path 14832" d="M842.821,404.842h-26.35a1.171,1.171,0,0,1,0-2.342h26.35a1.171,1.171,0,0,1,0,2.342Z" transform="translate(-542.503 -267.825)" fill="#0d2551"/>
      <path id="Path_14833" data-name="Path 14833" d="M62.5,661.954H22.211a1.173,1.173,0,0,1-1.158-1l-9.369-62.332a1.173,1.173,0,0,1,1.158-1.345H71.865a1.173,1.173,0,0,1,1.158,1.345l-9.369,62.332A1.173,1.173,0,0,1,62.5,661.954Zm-39.278-2.342H61.486l9.017-59.99H14.2l9.017,59.99Z" transform="translate(-7.766 -397.432)" fill="#0d2551"/>
      <path id="Path_14834" data-name="Path 14834" d="M68,583.167H1.171A1.172,1.172,0,0,1,0,582v-8.275a1.172,1.172,0,0,1,1.171-1.171H68a1.172,1.172,0,0,1,1.171,1.171V582A1.172,1.172,0,0,1,68,583.167ZM2.342,580.825H66.829v-5.932H2.342Z" transform="translate(0 -380.976)" fill="#0d2551"/>
      <path id="Path_14835" data-name="Path 14835" d="M98.984,427.765a1.171,1.171,0,0,1-1.168-1.111,104.142,104.142,0,0,1,3.343-28.474c3.674-14.381,12.133-34.132,31.586-46.556A1.17,1.17,0,1,1,134,353.6c-18.808,12.009-27.009,31.188-30.579,45.161a103.7,103.7,0,0,0-3.272,27.772,1.171,1.171,0,0,1-1.108,1.231h-.064Z" transform="translate(-65.056 -233.849)" fill="#0d2551"/>
      <path id="Path_14836" data-name="Path 14836" d="M91.233,379.582a1.172,1.172,0,0,1-.719-.248c-.117-.09-11.487-9.111-4.771-19.9.86-1.382,1.629-2.583,2.319-3.657,4.219-6.582,5.22-8.144,5.062-17.245-.2-11.781,3.788-12.989,15.355-14.756,5.133-.783,7.646-4.363,10.078-7.826,2.5-3.557,5.079-7.237,10.259-5.775,5.581,1.576,9.68,5.5,10.2,9.754.345,2.837-.673,7.033-7.478,10.908-5.966,3.4-6.227,6.595-6.5,9.981-.258,3.205-.525,6.521-5.641,9.131a67.552,67.552,0,0,1-6.22,2.734c-5.27,2.085-7.244,2.864-7.5,10.245-.4,11.517-4.159,15.873-14.348,16.646h-.09Zm35.39-67.385c-2.429,0-3.948,1.964-6.15,5.1-2.459,3.5-5.518,7.863-11.641,8.8-11.179,1.706-13.538,2.412-13.367,12.4.171,9.807-1.131,11.835-5.434,18.55-.683,1.067-1.449,2.259-2.3,3.63-5.076,8.154,2.151,15.054,3.878,16.529,8.505-.76,11.366-4.313,11.718-14.354.311-8.914,3.577-10.205,8.981-12.343a65.337,65.337,0,0,0,6.016-2.643c3.948-2.014,4.126-4.2,4.37-7.231.281-3.483.632-7.816,7.676-11.828,4.5-2.563,6.685-5.534,6.314-8.589-.4-3.279-3.9-6.481-8.509-7.783a5.758,5.758,0,0,0-1.553-.234Z" transform="translate(-55.642 -206.173)" fill="#0d2551"/>
      <path id="Path_14837" data-name="Path 14837" d="M135.688,497.6a1.157,1.157,0,0,1-.3-.04,1.172,1.172,0,0,1-.836-1.432,59.32,59.32,0,0,1,9.656-18.778,52.12,52.12,0,0,1,38.646-20.956,1.171,1.171,0,0,1,.174,2.335c-15.325,1.148-27.758,7.89-36.956,20.032a57.785,57.785,0,0,0-9.258,17.958,1.17,1.17,0,0,1-1.131.873Z" transform="translate(-89.507 -303.683)" fill="#0d2551"/>
      <path id="Path_14838" data-name="Path 14838" d="M43.5,448.936a1.17,1.17,0,0,1-1.168-1.108c-.02-.375-2.118-37.733-6.093-63.219a1.172,1.172,0,0,1,2.315-.361c3.992,25.6,6.1,63.075,6.116,63.45a1.171,1.171,0,0,1-1.1,1.235H43.5Z" transform="translate(-24.106 -255.02)" fill="#0d2551"/>
      <path id="Path_14839" data-name="Path 14839" d="M157.219,463.831a11.54,11.54,0,0,1-4.638-.913,1.165,1.165,0,0,1-.589-.683c-.047-.147-4.714-14.843,5.588-20.534,2.262-1.251,4.233-2.249,5.969-3.132,5.615-2.847,8.71-4.417,12.009-9.459,3.045-4.651,7.354-3.59,11.524-2.563,2.954.729,6.006,1.479,8.977.458,5.049-1.74,11.062-.321,13.685,3.229,1.278,1.73,2.831,5.447-1.144,10.915-4.055,5.574-9.526,5.32-13.926,5.116-4.377-.2-7.15-.167-8.93,2.961-2.62,4.6-5.588,4.373-8.208,4.172-2.667-.2-5.19-.4-8.516,3.875-4.149,5.33-8.586,6.561-11.8,6.561ZM154.074,461c1.656.6,7.5,2.021,13.1-5.173,4.1-5.267,7.672-4.989,10.543-4.771,2.473.191,4.109.315,5.993-2.995,2.583-4.537,6.9-4.336,11.075-4.142,4.427.207,8.609.4,11.922-4.156,2.329-3.2,2.73-6.016,1.158-8.144-2.018-2.727-6.97-3.808-11.038-2.406-3.624,1.245-7.17.371-10.3-.4-4.387-1.081-6.966-1.539-9,1.569-3.644,5.564-7.13,7.334-12.909,10.265-1.72.873-3.671,1.86-5.9,3.092-7.632,4.216-5.293,14.823-4.641,17.255Z" transform="translate(-100.408 -283.235)" fill="#0d2551"/>
      <path id="Path_14840" data-name="Path 14840" d="M21.661,382.073a7.023,7.023,0,0,1-2.934-.646c-6.528-3.021-6.16-9.051-5.865-13.9.137-2.272.271-4.413-.335-5.8a22.833,22.833,0,0,0-2.182-3.681C7.959,354.546,5.493,350.925,9.2,344c2.075-3.875,1.148-6.4-.023-9.59s-2.509-6.829-.552-12.149c2.2-5.969,6.832-7.729,10.209-6.839,3.262.86,6.13,4.3,5.19,10.051-1.1,6.732.067,7.927,2.4,10.3a29.916,29.916,0,0,1,3.175,3.671c2.3,3.209,1.4,6.24.358,9.754-1.094,3.681-2.453,8.265-.88,15.1,1.79,7.783-.023,12.434-1.86,14.963a6.863,6.863,0,0,1-5.564,2.814Zm-4.581-64.54c-2.248,0-4.808,1.609-6.254,5.531-1.66,4.507-.586,7.435.552,10.53,1.211,3.3,2.463,6.7-.11,11.5-3.041,5.678-1.255,8.3,1.01,11.631a24.526,24.526,0,0,1,2.4,4.069c.826,1.9.679,4.32.522,6.879-.278,4.561-.565,9.275,4.51,11.627h0a4.566,4.566,0,0,0,5.618-1.415c1.549-2.138,3.065-6.14,1.472-13.066-1.71-7.438-.191-12.554.917-16.292.974-3.279,1.616-5.444-.017-7.719a27.42,27.42,0,0,0-2.944-3.4c-2.847-2.9-4.28-4.771-3.041-12.323.706-4.3-1.238-6.819-3.473-7.408a4.608,4.608,0,0,0-1.164-.151Z" transform="translate(-4.86 -209.735)" fill="#0d2551"/>
      <path id="Path_14841" data-name="Path 14841" d="M1020.224,30.391a15.2,15.2,0,1,1,15.194-15.2,15.211,15.211,0,0,1-15.194,15.2Zm0-28.049a12.852,12.852,0,1,0,12.852,12.852A12.866,12.866,0,0,0,1020.224,2.342Z" transform="translate(-668.749)" fill="#0d2551"/>
      <rect id="Rectangle_1572" data-name="Rectangle 1572" width="5.464" height="174.583" transform="translate(69.372 87.598)" fill="#fff"/>
    </g>
    <text id="No_Rules_set_yet" data-name="No Rules set yet" transform="translate(908 530)" font-size="29" font-family="Poppins-Medium, Poppins" font-weight="500"><tspan x="0" y="0">No Rules set yet</tspan></text>
  </g>
</svg>
