<svg xmlns="http://www.w3.org/2000/svg" width="19.829" height="23.786" viewBox="0 0 19.829 23.786">
  <path id="notification" d="M9.493,23.786c-.156-.038-.313-.07-.467-.116a3.436,3.436,0,0,1-2.512-2.658c-.014-.06-.03-.12-.05-.2h-.25c-1.58,0-3.159.007-4.739,0a1.4,1.4,0,0,1-1.32-.834A1.422,1.422,0,0,1,.3,18.44a2.072,2.072,0,0,1,.3-.317,6.879,6.879,0,0,0,2.373-5.3c.008-1.045-.011-2.091.009-3.136a6.9,6.9,0,0,1,4.65-6.326.357.357,0,0,0,.3-.421,8.5,8.5,0,0,1,.024-1.206,1.97,1.97,0,0,1,3.913,0,12.511,12.511,0,0,1,.027,1.322.235.235,0,0,0,.184.265A6.853,6.853,0,0,1,16.765,8.86a7.327,7.327,0,0,1,.078,1.2c.019,1.138-.025,2.279.045,3.413a6.609,6.609,0,0,0,2.177,4.506c.084.079.174.154.259.233a1.487,1.487,0,0,1-1.022,2.6q-2.346,0-4.692,0h-.25c-.027.115-.05.227-.081.335a3.435,3.435,0,0,1-2.822,2.594.957.957,0,0,0-.127.044H9.494Zm.426-3.96v-.012q1.486,0,2.972,0,2.659,0,5.317.012a.544.544,0,0,0,.585-.323c.091-.223.027-.411-.217-.629a7.847,7.847,0,0,1-2.718-6.119c0-.921,0-1.842,0-2.763a6.671,6.671,0,0,0-.059-.925,5.945,5.945,0,0,0-11.829.709c-.014,1.122.016,2.246-.012,3.367a7.6,7.6,0,0,1-1.685,4.648,15.556,15.556,0,0,1-1.087,1.14.5.5,0,0,0,.331.893c.077,0,.155,0,.232,0H9.919Zm-2.41,1a2.446,2.446,0,0,0,4.8,0ZM10.9,3c0-.349.011-.711,0-1.071A.975.975,0,0,0,9.976.992a.946.946,0,0,0-1.012.741A9.2,9.2,0,0,0,8.952,3Z" transform="translate(0.005 0)" fill="#36c3df"/>
</svg>
